<svg xmlns="http://www.w3.org/2000/svg" viewBox="0 0 128 128" role="img" aria-label="MiPO mark">
  <defs>
    <linearGradient id="g" x1="18" y1="18" x2="110" y2="110" gradientUnits="userSpaceOnUse">
      <stop offset="0" stop-color="#19d8ff"/>
      <stop offset="0.55" stop-color="#287cff"/>
      <stop offset="1" stop-color="#0a27bf"/>
    </linearGradient>
    <linearGradient id="t" x1="18" y1="22" x2="62" y2="70" gradientUnits="userSpaceOnUse">
      <stop offset="0" stop-color="#ffd36a"/>
      <stop offset="1" stop-color="#ff9a2f"/>
    </linearGradient>
  </defs>
  <rect width="128" height="128" rx="34" fill="#071530"/>
  <circle cx="33" cy="31" r="13" fill="url(#t)"/>
  <circle cx="63" cy="25" r="12" fill="url(#t)"/>
  <circle cx="48" cy="47" r="30" fill="url(#t)"/>
  <path d="M30 48c7-6 29-7 38 0" fill="none" stroke="#2b1408" stroke-width="5" stroke-linecap="round"/>
  <circle cx="39" cy="47" r="4" fill="#140b08"/>
  <circle cx="58" cy="47" r="4" fill="#140b08"/>
  <path d="M45 60c5 5 11 5 16 0" fill="none" stroke="#140b08" stroke-width="4" stroke-linecap="round"/>
  <path d="M21 37c7-2 14-2 21 1M58 34c7-3 14-3 20 0M31 68c6 3 12 4 18 2" stroke="#2b1408" stroke-width="5" stroke-linecap="round" fill="none"/>
  <path d="M32 91c10-28 22-45 38-45 16 0 20 17 15 46 10-30 23-45 39-42" fill="none" stroke="url(#g)" stroke-width="20" stroke-linecap="round" stroke-linejoin="round"/>
  <path d="M30 88c10-28 23-46 39-46 17 0 21 18 16 47 10-30 23-46 40-43" fill="none" stroke="#8beeff" stroke-width="6" stroke-linecap="round" opacity=".75"/>
  <circle cx="101" cy="24" r="7" fill="#7eeaff" opacity=".95"/>
  <circle cx="111" cy="43" r="4" fill="#80eaff" opacity=".9"/>
  <circle cx="111" cy="82" r="8" fill="#2039de" opacity=".82"/>
</svg>
